# OBJ file building_8_6_1_0.8.obj
# 18 vertices
v 0.0000 0.0000 0.0000
v 0.0000 6.0000 0.0000
v 1.0000 0.0000 0.0000
v 0.8000 6.0000 0.0000
v 0.7071 0.0000 0.7071
v 0.5657 6.0000 0.5657
v 0.0000 0.0000 1.0000
v 0.0000 6.0000 0.8000
v -0.7071 0.0000 0.7071
v -0.5657 6.0000 0.5657
v -1.0000 0.0000 0.0000
v -0.8000 6.0000 0.0000
v -0.7071 0.0000 -0.7071
v -0.5657 6.0000 -0.5657
v -0.0000 0.0000 -1.0000
v -0.0000 6.0000 -0.8000
v 0.7071 0.0000 -0.7071
v 0.5657 6.0000 -0.5657
# 32 normals
vn 0.0000 -1.0000 0.0000
vn 0.0000 1.0000 0.0000
vn 0.9234 0.0308 0.3825
vn 0.9234 0.0308 0.3825
vn 0.0000 -1.0000 0.0000
vn 0.0000 1.0000 0.0000
vn 0.3825 0.0308 0.9234
vn 0.3825 0.0308 0.9234
vn 0.0000 -1.0000 0.0000
vn 0.0000 1.0000 0.0000
vn -0.3825 0.0308 0.9234
vn -0.3825 0.0308 0.9234
vn 0.0000 -1.0000 0.0000
vn 0.0000 1.0000 0.0000
vn -0.9234 0.0308 0.3825
vn -0.9234 0.0308 0.3825
vn 0.0000 -1.0000 0.0000
vn 0.0000 1.0000 0.0000
vn -0.9234 0.0308 -0.3825
vn -0.9234 0.0308 -0.3825
vn 0.0000 -1.0000 0.0000
vn 0.0000 1.0000 0.0000
vn -0.3825 0.0308 -0.9234
vn -0.3825 0.0308 -0.9234
vn 0.0000 -1.0000 0.0000
vn 0.0000 1.0000 0.0000
vn 0.3825 0.0308 -0.9234
vn 0.3825 0.0308 -0.9234
vn 0.0000 -1.0000 0.0000
vn 0.0000 1.0000 0.0000
vn 0.9234 0.0308 -0.3825
vn 0.9234 0.0308 -0.3825
# 32 faces
f 5//1 1//1 3//1
f 4//2 2//2 6//2
f 5//3 3//3 4//3
f 6//4 5//4 4//4
f 7//5 1//5 5//5
f 6//6 2//6 8//6
f 7//7 5//7 6//7
f 8//8 7//8 6//8
f 9//9 1//9 7//9
f 8//10 2//10 10//10
f 9//11 7//11 8//11
f 10//12 9//12 8//12
f 11//13 1//13 9//13
f 10//14 2//14 12//14
f 11//15 9//15 10//15
f 12//16 11//16 10//16
f 13//17 1//17 11//17
f 12//18 2//18 14//18
f 13//19 11//19 12//19
f 14//20 13//20 12//20
f 15//21 1//21 13//21
f 14//22 2//22 16//22
f 15//23 13//23 14//23
f 16//24 15//24 14//24
f 17//25 1//25 15//25
f 16//26 2//26 18//26
f 17//27 15//27 16//27
f 18//28 17//28 16//28
f 3//29 1//29 17//29
f 18//30 2//30 4//30
f 17//31 18//31 3//31
f 4//32 3//32 18//32
