# Blender 3.6.5
# www.blender.org
mtllib Building301.mtl
o Building
v 1.000000 6.118468 -1.000000
v 1.000000 0.000000 -1.000000
v 1.000000 6.118468 1.000000
v 1.000000 0.000000 1.000000
v -1.000000 6.118468 -1.000000
v -1.000000 0.000000 -1.000000
v -1.000000 6.118468 1.000000
v -1.000000 0.000000 1.000000
vn -0.0000 1.0000 -0.0000
vn -0.0000 -0.0000 1.0000
vn -1.0000 -0.0000 -0.0000
vn -0.0000 -1.0000 -0.0000
vn 1.0000 -0.0000 -0.0000
vn -0.0000 -0.0000 -1.0000
vt -0.653989 0.348682
vt 3.643306 0.348682
vt 3.643306 4.645977
vt -0.653989 4.645977
vt -0.910982 2.994659
vt 1.910982 2.994659
vt 1.910982 3.989318
vt -0.910982 3.989318
vt -0.910982 0.010682
vt 1.910982 0.010682
vt 1.910982 1.005341
vt -0.910982 1.005341
vt -0.991988 2.000000
vt 0.002671 2.000000
vt 0.002671 2.994659
vt -0.991988 2.994659
vt -0.910982 2.000000
vt 1.910982 2.000000
s 0
usemtl BuildingMat2
f 4/5/2 3/6/2 7/7/2 8/8/2
f 8/9/3 7/10/3 5/11/3 6/12/3
f 6/13/4 2/14/4 4/15/4 8/16/4
f 2/17/5 1/18/5 3/6/5 4/5/5
f 6/12/6 5/11/6 1/18/6 2/17/6
usemtl RoofMat2
f 1/1/1 5/2/1 7/3/1 3/4/1
