# OBJ file
# Vertices: 34
v 0.2500 0.0000 0.0000
v -0.2500 0.0000 0.0000
v 0.2500 0.0000 1.0000
v -0.2500 0.0000 1.0000
v 0.2500 0.3827 0.9239
v -0.2500 0.3827 0.9239
v 0.2500 0.7071 0.7071
v -0.2500 0.7071 0.7071
v 0.2500 0.9239 0.3827
v -0.2500 0.9239 0.3827
v 0.2500 1.0000 0.0000
v -0.2500 1.0000 0.0000
v 0.2500 0.9239 -0.3827
v -0.2500 0.9239 -0.3827
v 0.2500 0.7071 -0.7071
v -0.2500 0.7071 -0.7071
v 0.2500 0.3827 -0.9239
v -0.2500 0.3827 -0.9239
v 0.2500 0.0000 -1.0000
v -0.2500 0.0000 -1.0000
v 0.2500 -0.3827 -0.9239
v -0.2500 -0.3827 -0.9239
v 0.2500 -0.7071 -0.7071
v -0.2500 -0.7071 -0.7071
v 0.2500 -0.9239 -0.3827
v -0.2500 -0.9239 -0.3827
v 0.2500 -1.0000 -0.0000
v -0.2500 -1.0000 -0.0000
v 0.2500 -0.9239 0.3827
v -0.2500 -0.9239 0.3827
v 0.2500 -0.7071 0.7071
v -0.2500 -0.7071 0.7071
v 0.2500 -0.3827 0.9239
v -0.2500 -0.3827 0.9239
# Normals: 18
vn 1.0000 0.0000 0.0000
vn -0.0000 0.1951 0.9808
vn -1.0000 0.0000 0.0000
vn -0.0000 0.5556 0.8315
vn -0.0000 0.8315 0.5556
vn -0.0000 0.9808 0.1951
vn 0.0000 0.9808 -0.1951
vn 0.0000 0.8315 -0.5556
vn 0.0000 0.5556 -0.8315
vn 0.0000 0.1951 -0.9808
vn 0.0000 -0.1951 -0.9808
vn 0.0000 -0.5556 -0.8315
vn 0.0000 -0.8315 -0.5556
vn 0.0000 -0.9808 -0.1951
vn 0.0000 -0.9808 0.1951
vn 0.0000 -0.8315 0.5556
vn 0.0000 -0.5556 0.8315
vn 0.0000 -0.1951 0.9808
# Faces: 64
f 1//1 5//1 3//1
f 4//2 3//2 5//2
f 5//2 6//2 4//2
f 2//3 4//3 6//3
f 1//1 7//1 5//1
f 6//4 5//4 7//4
f 7//4 8//4 6//4
f 2//3 6//3 8//3
f 1//1 9//1 7//1
f 8//5 7//5 9//5
f 9//5 10//5 8//5
f 2//3 8//3 10//3
f 1//1 11//1 9//1
f 10//6 9//6 11//6
f 11//6 12//6 10//6
f 2//3 10//3 12//3
f 1//1 13//1 11//1
f 12//7 11//7 13//7
f 13//7 14//7 12//7
f 2//3 12//3 14//3
f 1//1 15//1 13//1
f 14//8 13//8 15//8
f 15//8 16//8 14//8
f 2//3 14//3 16//3
f 1//1 17//1 15//1
f 16//9 15//9 17//9
f 17//9 18//9 16//9
f 2//3 16//3 18//3
f 1//1 19//1 17//1
f 18//10 17//10 19//10
f 19//10 20//10 18//10
f 2//3 18//3 20//3
f 1//1 21//1 19//1
f 20//11 19//11 21//11
f 21//11 22//11 20//11
f 2//3 20//3 22//3
f 1//1 23//1 21//1
f 22//12 21//12 23//12
f 23//12 24//12 22//12
f 2//3 22//3 24//3
f 1//1 25//1 23//1
f 24//13 23//13 25//13
f 25//13 26//13 24//13
f 2//3 24//3 26//3
f 1//1 27//1 25//1
f 26//14 25//14 27//14
f 27//14 28//14 26//14
f 2//3 26//3 28//3
f 1//1 29//1 27//1
f 28//15 27//15 29//15
f 29//15 30//15 28//15
f 2//3 28//3 30//3
f 1//1 31//1 29//1
f 30//16 29//16 31//16
f 31//16 32//16 30//16
f 2//3 30//3 32//3
f 1//1 33//1 31//1
f 32//17 31//17 33//17
f 33//17 34//17 32//17
f 2//3 32//3 34//3
f 1//1 3//1 33//1
f 34//18 33//18 3//18
f 3//18 4//18 34//18
f 2//3 34//3 4//3
