# OBJ file
# Vertices: 18
v 0.2500 0.0000 0.0000
v -0.2500 0.0000 0.0000
v 0.2500 0.0000 1.0000
v -0.2500 0.0000 1.0000
v 0.2500 0.7071 0.7071
v -0.2500 0.7071 0.7071
v 0.2500 1.0000 0.0000
v -0.2500 1.0000 0.0000
v 0.2500 0.7071 -0.7071
v -0.2500 0.7071 -0.7071
v 0.2500 0.0000 -1.0000
v -0.2500 0.0000 -1.0000
v 0.2500 -0.7071 -0.7071
v -0.2500 -0.7071 -0.7071
v 0.2500 -1.0000 -0.0000
v -0.2500 -1.0000 -0.0000
v 0.2500 -0.7071 0.7071
v -0.2500 -0.7071 0.7071
# Normals: 10
vn 1.0000 0.0000 0.0000
vn -0.0000 0.3827 0.9239
vn -1.0000 0.0000 0.0000
vn -0.0000 0.9239 0.3827
vn 0.0000 0.9239 -0.3827
vn 0.0000 0.3827 -0.9239
vn 0.0000 -0.3827 -0.9239
vn 0.0000 -0.9239 -0.3827
vn 0.0000 -0.9239 0.3827
vn 0.0000 -0.3827 0.9239
# Faces: 32
f 1//1 5//1 3//1
f 4//2 3//2 5//2
f 5//2 6//2 4//2
f 2//3 4//3 6//3
f 1//1 7//1 5//1
f 6//4 5//4 7//4
f 7//4 8//4 6//4
f 2//3 6//3 8//3
f 1//1 9//1 7//1
f 8//5 7//5 9//5
f 9//5 10//5 8//5
f 2//3 8//3 10//3
f 1//1 11//1 9//1
f 10//6 9//6 11//6
f 11//6 12//6 10//6
f 2//3 10//3 12//3
f 1//1 13//1 11//1
f 12//7 11//7 13//7
f 13//7 14//7 12//7
f 2//3 12//3 14//3
f 1//1 15//1 13//1
f 14//8 13//8 15//8
f 15//8 16//8 14//8
f 2//3 14//3 16//3
f 1//1 17//1 15//1
f 16//9 15//9 17//9
f 17//9 18//9 16//9
f 2//3 16//3 18//3
f 1//1 3//1 17//1
f 18//10 17//10 3//10
f 3//10 4//10 18//10
f 2//3 18//3 4//3
