# Blender 4.3.0
# www.blender.org
mtllib building_1.mtl
o Building1
v 0.698529 4.000000 -0.698529
v 1.000000 0.000000 -1.000000
v 0.698529 4.000000 0.698529
v 1.000000 0.000000 1.000000
v -0.698529 4.000000 -0.698529
v -1.000000 0.000000 -1.000000
v -0.698529 4.000000 0.698529
v -1.000000 0.000000 1.000000
v 1.000000 4.000000 1.000000
v -1.000000 4.000000 1.000000
v 1.000000 4.000000 -1.000000
v -1.000000 4.000000 -1.000000
v 0.488722 5.645977 0.488722
v -0.488722 5.645977 0.488722
v 0.488722 5.645977 -0.488722
v -0.488722 5.645977 -0.488722
v 0.698529 5.645977 0.698529
v -0.698529 5.645977 0.698529
v 0.698529 5.645977 -0.698529
v -0.698529 5.645977 -0.698529
v 0.488722 6.622104 0.488722
v -0.488722 6.622104 0.488722
v 0.488722 6.622104 -0.488722
v -0.488722 6.622104 -0.488722
v 0.288623 6.930056 0.288623
v -0.288623 6.930056 0.288623
v 0.288623 6.930056 -0.288623
v -0.288623 6.930056 -0.288623
v 0.069252 7.340235 0.069252
v -0.069252 7.340235 0.069252
v 0.069252 7.340235 -0.069252
v -0.069252 7.340235 -0.069252
v 0.288623 7.340235 0.288623
v -0.288623 7.340235 0.288623
v 0.288623 7.340235 -0.288623
v -0.288623 7.340235 -0.288623
v 0.069252 8.804960 0.069252
v -0.069252 8.804960 0.069252
v 0.069252 8.804960 -0.069252
v -0.069252 8.804960 -0.069252
v 0.698529 4.095917 0.617117
v 0.698529 4.095917 -0.617117
v 0.698529 5.550060 -0.617117
v 0.698529 5.550060 0.617117
v 0.883453 0.233094 1.000000
v 0.883453 3.766906 1.000000
v -0.883453 3.766906 1.000000
v -0.883453 0.233094 1.000000
v -1.000000 0.233094 0.883453
v -1.000000 3.766906 0.883453
v -1.000000 3.766906 -0.883453
v -1.000000 0.233094 -0.883453
v 1.000000 0.233094 -0.883453
v 1.000000 3.766906 -0.883453
v 1.000000 3.766906 0.883453
v 1.000000 0.233094 0.883453
v -0.883453 0.233094 -1.000000
v -0.883453 3.766906 -1.000000
v 0.883453 3.766906 -1.000000
v 0.883453 0.233094 -1.000000
v -0.488722 5.702859 -0.431763
v -0.488722 5.702859 0.431763
v -0.488722 6.565221 0.431763
v -0.488722 6.565221 -0.431763
v -0.698529 4.095917 -0.617117
v -0.698529 4.095917 0.617117
v -0.698529 5.550060 0.617117
v -0.698529 5.550060 -0.617117
v -0.617117 4.095917 0.698529
v 0.617117 4.095917 0.698529
v 0.617117 5.550060 0.698529
v -0.617117 5.550060 0.698529
v 0.617117 4.095917 -0.698529
v -0.617117 4.095917 -0.698529
v -0.617117 5.550060 -0.698529
v 0.617117 5.550060 -0.698529
v -0.431763 5.702859 0.488722
v 0.431763 5.702859 0.488722
v 0.431763 6.565221 0.488722
v -0.431763 6.565221 0.488722
v 0.431763 5.702859 -0.488722
v -0.431763 5.702859 -0.488722
v -0.431763 6.565221 -0.488722
v 0.431763 6.565221 -0.488722
v 0.488722 5.702859 0.431763
v 0.488722 5.702859 -0.431763
v 0.488722 6.565221 -0.431763
v 0.488722 6.565221 0.431763
v 0.288623 6.953959 0.254985
v 0.288623 6.953959 -0.254985
v 0.288623 7.316333 -0.254985
v 0.288623 7.316333 0.254985
v -0.288623 6.953959 -0.254985
v -0.288623 6.953959 0.254985
v -0.288623 7.316333 0.254985
v -0.288623 7.316333 -0.254985
v -0.254985 6.953959 0.288623
v 0.254985 6.953959 0.288623
v 0.254985 7.316333 0.288623
v -0.254985 7.316333 0.288623
v 0.254985 6.953959 -0.288623
v -0.254985 6.953959 -0.288623
v -0.254985 7.316333 -0.288623
v 0.254985 7.316333 -0.288623
v 0.632761 4.095917 0.617117
v 0.632761 4.095917 -0.617117
v 0.632761 5.550060 -0.617117
v 0.632761 5.550060 0.617117
v 0.883453 0.233094 0.934232
v 0.883453 3.766906 0.934232
v -0.883453 3.766906 0.934232
v -0.883453 0.233094 0.934232
v -0.934232 0.233094 0.883453
v -0.934232 3.766906 0.883453
v -0.934232 3.766906 -0.883453
v -0.934232 0.233094 -0.883453
v 0.934232 0.233094 -0.883453
v 0.934232 3.766906 -0.883453
v 0.934232 3.766906 0.883453
v 0.934232 0.233094 0.883453
v -0.883453 0.233094 -0.934232
v -0.883453 3.766906 -0.934232
v 0.883453 3.766906 -0.934232
v 0.883453 0.233094 -0.934232
v -0.422954 5.735196 -0.396660
v -0.422954 5.735196 0.396660
v -0.422954 6.532885 0.396660
v -0.422954 6.532885 -0.396660
v -0.632761 4.095917 -0.617117
v -0.632761 4.095917 0.617117
v -0.632761 5.550060 0.617117
v -0.632761 5.550060 -0.617117
v -0.617117 4.095917 0.632761
v 0.617117 4.095917 0.632761
v 0.617117 5.550060 0.632761
v -0.617117 5.550060 0.632761
v 0.617117 4.095917 -0.632761
v -0.617117 4.095917 -0.632761
v -0.617117 5.550060 -0.632761
v 0.617117 5.550060 -0.632761
v -0.396660 5.735196 0.422954
v 0.396660 5.735196 0.422954
v 0.396660 6.532885 0.422954
v -0.396660 6.532885 0.422954
v 0.396660 5.735196 -0.422954
v -0.396660 5.735196 -0.422954
v -0.396660 6.532885 -0.422954
v 0.396660 6.532885 -0.422954
v 0.422954 5.735196 0.396660
v 0.422954 5.735196 -0.396660
v 0.422954 6.532885 -0.396660
v 0.422954 6.532885 0.396660
v 0.222855 6.999988 0.185470
v 0.222855 6.999988 -0.185470
v 0.222855 7.270304 -0.185470
v 0.222855 7.270304 0.185470
v -0.222855 6.999988 -0.185470
v -0.222855 6.999988 0.185470
v -0.222855 7.270304 0.185470
v -0.222855 7.270304 -0.185470
v -0.185470 6.999988 0.222855
v 0.185470 6.999988 0.222855
v 0.185470 7.270304 0.222855
v -0.185470 7.270304 0.222855
v 0.185470 6.999988 -0.222855
v -0.185470 6.999988 -0.222855
v -0.185470 7.270304 -0.222855
v 0.185470 7.270304 -0.222855
vn 1.0000 -0.0000 -0.0000
vn -0.0000 1.0000 -0.0000
vn -0.0000 -0.0000 1.0000
vn -0.0000 -1.0000 -0.0000
vn -0.0000 -0.0000 -1.0000
vn -1.0000 -0.0000 -0.0000
vn -0.0000 0.5449 -0.8385
vn 0.8385 0.5449 -0.0000
vn -0.8385 0.5449 -0.0000
vn -0.0000 0.5449 0.8385
vn -0.4412 0.8974 -0.0000
vn -0.4709 -0.0000 -0.8822
vn -0.4412 -0.8974 -0.0000
vn -0.4709 -0.0000 0.8822
vn -0.0000 0.8974 0.4412
vn -0.8822 -0.0000 0.4709
vn -0.0000 -0.8974 0.4412
vn 0.8822 -0.0000 0.4709
vn -0.0000 0.8974 -0.4412
vn 0.8822 -0.0000 -0.4709
vn -0.0000 -0.8974 -0.4412
vn -0.8822 -0.0000 -0.4709
vn 0.4412 0.8974 -0.0000
vn 0.4709 -0.0000 0.8822
vn 0.4412 -0.8974 -0.0000
vn 0.4709 -0.0000 -0.8822
vn 0.5734 0.8193 -0.0000
vn 0.7264 -0.0000 0.6873
vn 0.5734 -0.8193 -0.0000
vn 0.7264 -0.0000 -0.6873
vn -0.5734 0.8193 -0.0000
vn -0.7264 -0.0000 -0.6873
vn -0.5734 -0.8193 -0.0000
vn -0.7264 -0.0000 0.6873
vn -0.0000 0.8193 0.5734
vn -0.6873 -0.0000 0.7264
vn -0.0000 -0.8193 0.5734
vn 0.6873 -0.0000 0.7264
vn -0.0000 0.8193 -0.5734
vn 0.6873 -0.0000 -0.7264
vn -0.0000 -0.8193 -0.5734
vn -0.6873 -0.0000 -0.7264
vt -3.159719 -4.015506
vt -0.901966 0.500000
vt -3.159719 0.500000
vt 0.578041 0.605959
vt 0.577877 0.610372
vt 0.577877 0.605959
vt 0.577055 0.614785
vt 0.577220 0.605959
vt 0.577220 0.614785
vt 0.451254 0.500000
vt 0.449509 0.498256
vt 0.451254 0.498256
vt 0.577877 0.614785
vt 0.578041 0.610372
vt 0.578041 0.614785
vt 0.577055 0.623612
vt 0.449772 0.501481
vt 0.449509 0.500000
vt 0.449772 0.500263
vt 0.450991 0.500263
vt 0.450991 0.501481
vt 0.449509 0.501744
vt 0.451254 0.501744
vt -0.901965 -4.015506
vt 1.355787 0.500000
vt -0.901965 0.500000
vt 0.577712 0.610372
vt 0.577712 0.605959
vt 0.577384 0.605959
vt 0.577384 0.614785
vt 0.577712 0.614785
vt 0.451437 0.499291
vt 0.451437 0.498439
vt 0.452472 0.498256
vt 0.452289 0.498439
vt 0.452289 0.499291
vt 0.451254 0.499474
vt 0.452472 0.499474
vt 0.452026 0.500327
vt 0.451757 0.499649
vt 0.452026 0.499474
vt 0.577220 0.623612
vt -3.159719 0.500001
vt -0.901966 5.015506
vt -3.159719 5.015506
vt 0.578041 0.609591
vt 0.578205 0.605959
vt 0.578205 0.609591
vt 0.578534 0.612124
vt 0.578370 0.615207
vt 0.578370 0.612124
vt 0.451522 0.500830
vt 0.451254 0.500152
vt 0.451522 0.499978
vt 0.452294 0.500327
vt 0.452026 0.499649
vt 0.452294 0.499474
vt 0.452026 0.501179
vt 0.451757 0.500501
vt 0.452294 0.500752
vt 0.452415 0.499474
vt 0.452415 0.500752
vt 0.578041 0.613223
vt 0.578370 0.618290
vt 0.578534 0.615207
vt 0.578534 0.618290
vt 1.355787 -2.157401
vt 2.932893 -4.015506
vt 2.932893 -2.157401
vt 0.451445 0.499786
vt 0.451445 0.499665
vt 0.451757 0.499474
vt 0.451566 0.499665
vt 0.451566 0.499786
vt 0.451254 0.499978
vt 0.451757 0.499978
vt 0.452147 0.500447
vt 0.452147 0.500327
vt 0.451522 0.501255
vt 0.451643 0.499978
vt 0.451643 0.501255
vt 0.452536 0.499474
vt 0.452536 0.500752
vt 0.452657 0.499474
vt 0.452657 0.500752
vt 0.571331 0.609830
vt 0.574617 0.610070
vt 0.571128 0.610070
vt 0.571128 0.605959
vt 0.574414 0.606198
vt 0.574617 0.605959
vt 0.561428 0.606541
vt 0.561137 0.615950
vt 0.561137 0.605959
vt 0.565842 0.606541
vt 0.566133 0.605959
vt 0.565842 0.615367
vt 0.566133 0.615950
vt 0.561428 0.615367
vt 0.566424 0.606541
vt 0.570837 0.606541
vt 0.570837 0.615367
vt 0.571128 0.615950
vt 0.566424 0.615367
vt 0.561428 0.616532
vt 0.561137 0.625940
vt 0.565842 0.616532
vt 0.565842 0.625358
vt 0.566133 0.625940
vt 0.561428 0.625358
vt 0.566424 0.616532
vt 0.570837 0.616532
vt 0.570837 0.625358
vt 0.571128 0.625940
vt 0.566424 0.625358
vt 0.573424 0.624702
vt 0.573566 0.622403
vt 0.573566 0.624845
vt 0.571270 0.624702
vt 0.571128 0.624845
vt 0.571270 0.622546
vt 0.571128 0.622403
vt 0.573424 0.622546
vt 0.571331 0.613942
vt 0.574617 0.614181
vt 0.571128 0.614181
vt 0.574414 0.610310
vt 0.571331 0.618053
vt 0.574617 0.618292
vt 0.571128 0.618292
vt 0.574414 0.614421
vt 0.571331 0.622164
vt 0.574617 0.622403
vt 0.574414 0.618532
vt 0.576913 0.608258
vt 0.577055 0.605959
vt 0.577055 0.608400
vt 0.574759 0.608258
vt 0.574617 0.608400
vt 0.574759 0.606101
vt 0.576913 0.606101
vt 0.576913 0.610699
vt 0.577055 0.610842
vt 0.574759 0.610699
vt 0.574617 0.610842
vt 0.574759 0.608543
vt 0.576913 0.608543
vt 0.576913 0.613141
vt 0.577055 0.613283
vt 0.574759 0.613141
vt 0.574617 0.613283
vt 0.574759 0.610984
vt 0.576913 0.610984
vt 0.575582 0.614641
vt 0.575642 0.613283
vt 0.575642 0.614725
vt 0.574677 0.614641
vt 0.574617 0.614725
vt 0.574677 0.613367
vt 0.575582 0.613367
vt 0.575582 0.616082
vt 0.575642 0.616166
vt 0.574677 0.616082
vt 0.574617 0.616166
vt 0.574677 0.614809
vt 0.575582 0.614809
vt 0.575582 0.617524
vt 0.575642 0.617608
vt 0.574677 0.617524
vt 0.574617 0.617608
vt 0.574677 0.616251
vt 0.575582 0.616251
vt 0.575582 0.618966
vt 0.575642 0.619050
vt 0.574677 0.618966
vt 0.574617 0.619050
vt 0.574677 0.617692
vt 0.575582 0.617692
vt 0.577548 0.605959
vt 0.577877 0.619198
vt 0.577384 0.623612
vt 0.577548 0.614785
vt 0.577548 0.623612
vt 0.577877 0.623612
vt 0.578041 0.619198
vt 0.578041 0.623612
vt -0.901965 0.500001
vt 1.355787 5.015506
vt -0.901965 5.015506
vt 0.577712 0.619198
vt 0.577712 0.623612
vt 1.355787 4.436200
vt 2.369492 3.416914
vt 2.369492 4.436200
vt 0.578698 0.614674
vt 0.578534 0.616743
vt 0.578534 0.614586
vt 0.578698 0.623294
vt 0.578534 0.625367
vt 0.578534 0.623213
vt 0.578534 0.618812
vt 0.578698 0.616743
vt 0.578698 0.618900
vt 0.578698 0.608032
vt 0.578862 0.605959
vt 0.578862 0.608113
vt 1.355787 -0.299296
vt 2.932893 -0.299296
vt 0.578370 0.621373
vt 0.578205 0.613223
vt 0.578041 0.616855
vt 0.578370 0.624455
vt 0.578534 0.621372
vt 0.578534 0.624455
vt 0.578041 0.620487
vt 0.578205 0.616855
vt 0.578205 0.620487
vt 1.355787 1.558809
vt 2.932893 1.558809
vt 0.578370 0.616855
vt 0.578205 0.619938
vt 0.578041 0.624119
vt 0.578370 0.619938
vt 0.578205 0.623020
vt 0.578370 0.605959
vt 0.578370 0.609591
vt 1.355787 3.416914
vt 2.932893 3.416914
vt 0.578370 0.609042
vt 0.578534 0.605959
vt 0.578534 0.609042
vt 0.578370 0.613223
vt 2.932893 -2.996219
vt 3.946598 -4.015506
vt 3.946598 -2.996219
vt 0.578698 0.606047
vt 0.578534 0.608116
vt 0.578862 0.608194
vt 0.578698 0.610267
vt 0.578698 0.608113
vt 0.578698 0.608203
vt 0.578534 0.610273
vt 0.578698 0.612340
vt 0.578862 0.610267
vt 0.578862 0.612421
vt 2.932893 -1.976933
vt 3.946598 -1.976933
vt 0.578534 0.612342
vt 0.578698 0.610273
vt 0.578698 0.612429
vt 0.578862 0.612501
vt 0.578698 0.614575
vt 0.578698 0.612421
vt 0.578534 0.614498
vt 0.578698 0.614586
vt 0.578698 0.616648
vt 0.578862 0.614575
vt 0.578862 0.616728
vt 2.932893 -0.957646
vt 3.946598 -0.957646
vt 0.578534 0.620969
vt 0.578698 0.621057
vt 0.578862 0.616809
vt 0.578698 0.618882
vt 0.578698 0.616728
vt 0.578698 0.621144
vt 0.578534 0.621057
vt 0.578698 0.620955
vt 0.578862 0.618882
vt 0.578862 0.621036
vt 1.896038 -0.450392
vt 0.686478 0.431051
vt 0.686478 -0.450392
vt 0.578862 0.608333
vt 0.579027 0.607233
vt 0.579027 0.608506
vt 0.575467 0.614467
vt 0.579027 0.608680
vt 0.578862 0.609780
vt 0.578862 0.608506
vt 0.575467 0.613541
vt 3.105597 -0.450392
vt 1.896038 0.431051
vt 0.579027 0.609954
vt 0.578862 0.611054
vt 0.575467 0.615909
vt 0.578862 0.612154
vt 0.579027 0.611054
vt 0.579027 0.612328
vt 0.575467 0.614982
vt 4.315158 -0.450392
vt 3.105598 0.431051
vt 0.578862 0.621210
vt 0.578698 0.622310
vt 0.578698 0.621036
vt 0.575467 0.617351
vt 0.578862 0.622484
vt 0.578698 0.623584
vt 0.575467 0.616424
vt 5.524718 -0.450392
vt 4.315158 0.431051
vt 0.578698 0.624684
vt 0.578862 0.623584
vt 0.578862 0.624857
vt 0.575467 0.618792
vt 0.578862 0.607059
vt 0.579027 0.605959
vt 0.575467 0.617866
vt -0.901966 -4.015506
vt 1.355787 -4.015506
vt 0.451757 0.500152
vt -0.901966 0.500001
vt 0.451254 0.500656
vt 0.452026 0.500152
vt 0.451757 0.501005
vt 0.452026 0.500447
vt 0.574414 0.609830
vt 0.571331 0.606198
vt 0.574414 0.613942
vt 0.571331 0.610310
vt 0.574414 0.618053
vt 0.571331 0.614421
vt 0.574414 0.622164
vt 0.571331 0.618532
vt 1.355787 0.500001
vt 0.578698 0.616655
vt 0.578698 0.625286
vt 0.578534 0.616831
vt 0.578698 0.606040
vt 0.578534 0.621373
vt 0.578370 0.621372
vt 0.578205 0.624119
vt 0.578370 0.623020
vt 0.578698 0.608028
vt 0.578862 0.610186
vt 0.578698 0.610185
vt 0.578698 0.610348
vt 0.578534 0.610360
vt 0.578862 0.614494
vt 0.578534 0.612517
vt 0.578698 0.614655
vt 0.578534 0.618987
vt 0.578862 0.618802
vt 0.578698 0.623126
vt 0.578698 0.618963
vt 0.578862 0.607406
vt 0.574792 0.614467
vt 0.579027 0.609607
vt 0.574792 0.613541
vt 0.579027 0.610880
vt 0.574792 0.615909
vt 0.578862 0.611228
vt 0.574792 0.614982
vt 0.578862 0.622136
vt 0.574792 0.617351
vt 0.578862 0.623410
vt 0.574792 0.616424
vt 5.524718 0.431051
vt 0.578698 0.623757
vt 0.574792 0.618792
vt 0.578862 0.606133
vt 0.574792 0.617866
s 0
usemtl RoofMat
f 2/10/4 8/11/4 6/12/4
f 7/17/2 9/18/2 3/19/2
f 3/19/2 11/10/2 1/20/2
f 5/21/2 10/22/2 7/17/2
f 1/20/2 12/23/2 5/21/2
f 14/32/2 17/12/2 13/33/2
f 13/33/2 19/34/2 15/35/2
f 16/36/2 18/37/2 14/32/2
f 15/35/2 20/38/2 16/36/2
f 24/39/7 27/40/7 23/41/7
f 23/52/8 25/53/8 21/54/8
f 22/55/9 28/56/9 24/57/9
f 21/58/10 26/59/10 22/39/10
f 30/60/6 40/61/6 32/62/6
f 30/70/2 33/37/2 29/71/2
f 29/71/2 35/72/2 31/73/2
f 32/74/2 34/75/2 30/70/2
f 31/73/2 36/76/2 32/74/2
f 40/77/2 37/39/2 39/78/2
f 29/79/3 38/80/3 30/81/3
f 32/62/5 39/82/5 31/83/5
f 31/83/1 37/84/1 29/85/1
f 2/10/4 4/18/4 8/11/4
f 7/17/2 10/22/2 9/18/2
f 3/19/2 9/18/2 11/10/2
f 5/21/2 12/23/2 10/22/2
f 1/20/2 11/10/2 12/23/2
f 14/32/2 18/37/2 17/12/2
f 13/33/2 17/12/2 19/34/2
f 16/36/2 20/38/2 18/37/2
f 15/35/2 19/34/2 20/38/2
f 24/39/7 28/311/7 27/40/7
f 23/52/8 27/313/8 25/53/8
f 22/55/9 26/314/9 28/56/9
f 21/58/10 25/315/10 26/59/10
f 30/60/6 38/57/6 40/61/6
f 30/70/2 34/75/2 33/37/2
f 29/71/2 33/37/2 35/72/2
f 32/74/2 36/76/2 34/75/2
f 31/73/2 35/72/2 36/76/2
f 40/77/2 38/316/2 37/39/2
f 29/79/3 37/54/3 38/80/3
f 32/62/5 40/61/5 39/82/5
f 31/83/1 39/82/1 37/84/1
usemtl ColumnsMat
f 113/4/2 52/5/2 49/6/2
f 116/7/3 51/8/3 52/9/3
f 115/13/4 50/14/4 51/15/4
f 114/9/5 49/16/5 50/7/5
f 109/6/2 48/27/2 45/28/2
f 112/9/1 47/29/1 48/30/1
f 111/5/4 46/31/4 47/27/4
f 110/30/6 45/42/6 46/9/6
f 105/46/5 44/47/5 41/48/5
f 108/49/4 43/50/4 44/51/4
f 107/48/3 42/63/3 43/46/3
f 106/64/2 41/65/2 42/66/2
f 42/86/1 3/87/1 1/88/1
f 19/89/1 42/86/1 1/88/1
f 44/90/1 19/89/1 17/91/1
f 3/87/1 44/90/1 17/91/1
f 46/92/3 4/93/3 9/94/3
f 47/95/3 9/94/3 10/96/3
f 48/97/3 10/96/3 8/98/3
f 45/99/3 8/98/3 4/93/3
f 50/100/6 8/98/6 10/96/6
f 51/101/6 10/96/6 12/89/6
f 52/102/6 12/89/6 6/103/6
f 49/104/6 6/103/6 8/98/6
f 54/105/1 2/106/1 11/93/1
f 55/107/1 11/93/1 9/98/1
f 56/108/1 9/98/1 4/109/1
f 53/110/1 4/109/1 2/106/1
f 58/111/5 6/109/5 12/98/5
f 59/112/5 12/98/5 11/103/5
f 60/113/5 11/103/5 2/114/5
f 57/115/5 2/114/5 6/109/5
f 62/116/6 16/117/6 14/118/6
f 63/119/6 14/118/6 22/120/6
f 64/121/6 22/120/6 24/122/6
f 61/123/6 24/122/6 16/117/6
f 66/124/6 5/125/6 7/126/6
f 18/88/6 66/124/6 7/126/6
f 68/127/6 18/88/6 20/87/6
f 5/125/6 68/127/6 20/87/6
f 70/128/3 7/129/3 3/130/3
f 17/126/3 70/128/3 3/130/3
f 72/131/3 17/126/3 18/125/3
f 7/129/3 72/131/3 18/125/3
f 74/132/5 1/133/5 5/122/5
f 20/130/5 74/132/5 5/122/5
f 76/134/5 20/130/5 19/129/5
f 1/133/5 76/134/5 19/129/5
f 78/135/3 14/136/3 13/137/3
f 79/138/3 13/137/3 21/139/3
f 80/140/3 21/139/3 22/91/3
f 77/141/3 22/91/3 14/136/3
f 82/142/5 15/137/5 16/143/5
f 83/144/5 16/143/5 24/145/5
f 84/146/5 24/145/5 23/139/5
f 81/147/5 23/139/5 15/137/5
f 86/148/1 13/143/1 15/149/1
f 87/150/1 15/149/1 23/151/1
f 88/152/1 23/151/1 21/145/1
f 85/153/1 21/145/1 13/143/1
f 90/154/1 25/155/1 27/156/1
f 91/157/1 27/156/1 35/158/1
f 92/159/1 35/158/1 33/151/1
f 89/160/1 33/151/1 25/155/1
f 94/161/6 28/156/6 26/162/6
f 95/163/6 26/162/6 34/164/6
f 96/165/6 34/164/6 36/158/6
f 93/166/6 36/158/6 28/156/6
f 98/167/3 26/162/3 25/168/3
f 99/169/3 25/168/3 33/170/3
f 100/171/3 33/170/3 34/164/3
f 97/172/3 34/164/3 26/162/3
f 102/173/5 27/168/5 28/174/5
f 103/175/5 28/174/5 36/176/5
f 104/177/5 36/176/5 35/170/5
f 101/178/5 35/170/5 27/168/5
f 118/179/3 53/30/3 54/29/3
f 119/15/4 54/180/4 55/13/4
f 120/181/5 55/182/5 56/183/5
f 117/184/2 56/185/2 53/186/2
f 122/28/1 57/182/1 58/179/1
f 123/190/4 58/13/4 59/180/4
f 124/183/6 59/31/6 60/191/6
f 121/191/2 60/180/2 57/184/2
f 126/195/11 61/196/11 62/197/11
f 127/198/12 62/199/12 63/200/12
f 128/201/13 63/202/13 64/203/13
f 125/204/14 64/205/14 61/206/14
f 130/66/2 65/209/2 66/64/2
f 131/210/5 66/211/5 67/63/5
f 132/212/4 67/213/4 68/214/4
f 129/215/3 68/216/3 65/217/3
f 134/220/2 69/221/2 70/216/2
f 135/217/6 70/222/6 71/215/6
f 136/223/4 71/224/4 72/221/4
f 133/48/1 72/225/1 69/226/1
f 138/229/2 73/230/2 74/231/2
f 139/226/1 74/210/1 75/48/1
f 140/51/4 75/231/4 76/49/4
f 137/216/6 76/232/6 73/220/6
f 142/236/15 77/237/15 78/230/15
f 143/238/16 78/239/16 79/240/16
f 144/241/17 79/242/17 80/237/17
f 141/243/18 80/244/18 77/245/18
f 146/248/19 81/249/19 82/250/19
f 147/251/20 82/252/20 83/253/20
f 148/254/21 83/250/21 84/255/21
f 145/256/22 84/257/22 81/258/22
f 150/261/23 85/203/23 86/262/23
f 151/263/24 86/264/24 87/265/24
f 152/266/25 87/200/25 88/267/25
f 149/268/26 88/269/26 85/270/26
f 154/274/27 89/275/27 90/276/27
f 91/157/28 154/277/28 90/154/28
f 156/278/29 91/279/29 92/280/29
f 153/281/30 92/159/30 89/160/30
f 158/284/31 93/285/31 94/279/31
f 95/163/32 158/286/32 94/161/32
f 160/287/33 95/288/33 96/289/33
f 157/290/34 96/165/34 93/166/34
f 162/293/35 97/294/35 98/295/35
f 99/169/36 162/296/36 98/167/36
f 164/297/37 99/298/37 100/294/37
f 161/299/38 100/171/38 97/172/38
f 166/302/39 101/303/39 102/304/39
f 103/175/40 166/305/40 102/173/40
f 168/306/41 103/307/41 104/275/41
f 165/308/42 104/177/42 101/178/42
f 113/4/2 116/14/2 52/5/2
f 116/7/3 115/136/3 51/8/3
f 115/13/4 114/5/4 50/14/4
f 114/9/5 113/42/5 49/16/5
f 109/6/2 112/5/2 48/27/2
f 112/9/1 111/8/1 47/29/1
f 111/5/4 110/13/4 46/31/4
f 110/30/6 109/181/6 45/42/6
f 105/46/5 108/4/5 44/47/5
f 108/49/4 107/65/4 43/50/4
f 107/48/3 106/210/3 42/63/3
f 106/64/2 105/50/2 41/65/2
f 42/86/1 41/317/1 3/87/1
f 19/89/1 43/318/1 42/86/1
f 44/90/1 43/318/1 19/89/1
f 3/87/1 41/317/1 44/90/1
f 46/92/3 45/99/3 4/93/3
f 47/95/3 46/92/3 9/94/3
f 48/97/3 47/95/3 10/96/3
f 45/99/3 48/97/3 8/98/3
f 50/100/6 49/104/6 8/98/6
f 51/101/6 50/100/6 10/96/6
f 52/102/6 51/101/6 12/89/6
f 49/104/6 52/102/6 6/103/6
f 54/105/1 53/110/1 2/106/1
f 55/107/1 54/105/1 11/93/1
f 56/108/1 55/107/1 9/98/1
f 53/110/1 56/108/1 4/109/1
f 58/111/5 57/115/5 6/109/5
f 59/112/5 58/111/5 12/98/5
f 60/113/5 59/112/5 11/103/5
f 57/115/5 60/113/5 2/114/5
f 62/116/6 61/123/6 16/117/6
f 63/119/6 62/116/6 14/118/6
f 64/121/6 63/119/6 22/120/6
f 61/123/6 64/121/6 24/122/6
f 66/124/6 65/319/6 5/125/6
f 18/88/6 67/320/6 66/124/6
f 68/127/6 67/320/6 18/88/6
f 5/125/6 65/319/6 68/127/6
f 70/128/3 69/321/3 7/129/3
f 17/126/3 71/322/3 70/128/3
f 72/131/3 71/322/3 17/126/3
f 7/129/3 69/321/3 72/131/3
f 74/132/5 73/323/5 1/133/5
f 20/130/5 75/324/5 74/132/5
f 76/134/5 75/324/5 20/130/5
f 1/133/5 73/323/5 76/134/5
f 78/135/3 77/141/3 14/136/3
f 79/138/3 78/135/3 13/137/3
f 80/140/3 79/138/3 21/139/3
f 77/141/3 80/140/3 22/91/3
f 82/142/5 81/147/5 15/137/5
f 83/144/5 82/142/5 16/143/5
f 84/146/5 83/144/5 24/145/5
f 81/147/5 84/146/5 23/139/5
f 86/148/1 85/153/1 13/143/1
f 87/150/1 86/148/1 15/149/1
f 88/152/1 87/150/1 23/151/1
f 85/153/1 88/152/1 21/145/1
f 90/154/1 89/160/1 25/155/1
f 91/157/1 90/154/1 27/156/1
f 92/159/1 91/157/1 35/158/1
f 89/160/1 92/159/1 33/151/1
f 94/161/6 93/166/6 28/156/6
f 95/163/6 94/161/6 26/162/6
f 96/165/6 95/163/6 34/164/6
f 93/166/6 96/165/6 36/158/6
f 98/167/3 97/172/3 26/162/3
f 99/169/3 98/167/3 25/168/3
f 100/171/3 99/169/3 33/170/3
f 97/172/3 100/171/3 34/164/3
f 102/173/5 101/178/5 27/168/5
f 103/175/5 102/173/5 28/174/5
f 104/177/5 103/175/5 36/176/5
f 101/178/5 104/177/5 35/170/5
f 118/179/3 117/182/3 53/30/3
f 119/15/4 118/185/4 54/180/4
f 120/181/5 119/30/5 55/182/5
f 117/184/2 120/180/2 56/185/2
f 122/28/1 121/31/1 57/182/1
f 123/190/4 122/31/4 58/13/4
f 124/183/6 123/182/6 59/31/6
f 121/191/2 124/190/2 60/180/2
f 126/195/11 125/326/11 61/196/11
f 127/198/12 126/327/12 62/199/12
f 128/201/13 127/328/13 63/202/13
f 125/204/14 128/329/14 64/205/14
f 130/66/2 129/330/2 65/209/2
f 131/210/5 130/216/5 66/211/5
f 132/212/4 131/331/4 67/213/4
f 129/215/3 132/211/3 68/216/3
f 134/220/2 133/223/2 69/221/2
f 135/217/6 134/332/6 70/222/6
f 136/223/4 135/333/4 71/224/4
f 133/48/1 136/47/1 72/225/1
f 138/229/2 137/225/2 73/230/2
f 139/226/1 138/232/1 74/210/1
f 140/51/4 139/229/4 75/231/4
f 137/216/6 140/210/6 76/232/6
f 142/236/15 141/334/15 77/237/15
f 143/238/16 142/335/16 78/239/16
f 144/241/17 143/336/17 79/242/17
f 141/243/18 144/337/18 80/244/18
f 146/248/19 145/338/19 81/249/19
f 147/251/20 146/339/20 82/252/20
f 148/254/21 147/340/21 83/250/21
f 145/256/22 148/341/22 84/257/22
f 150/261/23 149/342/23 85/203/23
f 151/263/24 150/343/24 86/264/24
f 152/266/25 151/344/25 87/200/25
f 149/268/26 152/345/26 88/269/26
f 154/274/27 153/346/27 89/275/27
f 91/157/28 155/347/28 154/277/28
f 156/278/29 155/348/29 91/279/29
f 153/281/30 156/349/30 92/159/30
f 158/284/31 157/350/31 93/285/31
f 95/163/32 159/351/32 158/286/32
f 160/287/33 159/352/33 95/288/33
f 157/290/34 160/353/34 96/165/34
f 162/293/35 161/354/35 97/294/35
f 99/169/36 163/355/36 162/296/36
f 164/297/37 163/356/37 99/298/37
f 161/299/38 164/357/38 100/171/38
f 166/302/39 165/359/39 101/303/39
f 103/175/40 167/360/40 166/305/40
f 168/306/41 167/361/41 103/307/41
f 165/308/42 168/362/42 104/177/42
usemtl WindowMat
f 118/1/1 120/2/1 117/3/1
f 114/24/6 116/25/6 113/26/6
f 110/43/3 112/44/3 109/45/3
f 106/67/1 108/68/1 105/69/1
f 122/187/5 124/188/5 121/189/5
f 126/192/6 128/193/6 125/194/6
f 130/207/6 132/69/6 129/208/6
f 134/218/3 136/208/3 133/219/3
f 138/227/5 140/219/5 137/228/5
f 142/233/3 144/234/3 141/235/3
f 146/246/5 148/235/5 145/247/5
f 150/259/1 152/247/1 149/260/1
f 154/271/1 156/272/1 153/273/1
f 158/282/6 160/283/6 157/271/6
f 162/291/3 164/292/3 161/282/3
f 166/300/5 168/301/5 165/291/5
f 118/1/1 119/309/1 120/2/1
f 114/24/6 115/310/6 116/25/6
f 110/43/3 111/312/3 112/44/3
f 106/67/1 107/310/1 108/68/1
f 122/187/5 123/325/5 124/188/5
f 126/192/6 127/227/6 128/193/6
f 130/207/6 131/67/6 132/69/6
f 134/218/3 135/207/3 136/208/3
f 138/227/5 139/218/5 140/219/5
f 142/233/3 143/68/3 144/234/3
f 146/246/5 147/233/5 148/235/5
f 150/259/1 151/246/1 152/247/1
f 154/271/1 155/283/1 156/272/1
f 158/282/6 159/292/6 160/283/6
f 162/291/3 163/301/3 164/292/3
f 166/300/5 167/358/5 168/301/5
