# OBJ file
# Vertices: 34
v   0.2500   0.0000   0.0000
v  -0.2500   0.0000   0.0000
v   0.2500   0.0000   1.0000
v  -0.2500   0.0000   1.0000
v   0.2500   0.3827   0.9239
v  -0.2500   0.3827   0.9239
v   0.2500   0.7071   0.7071
v  -0.2500   0.7071   0.7071
v   0.2500   0.9239   0.3827
v  -0.2500   0.9239   0.3827
v   0.2500   1.0000   0.0000
v  -0.2500   1.0000   0.0000
v   0.2500   0.9239  -0.3827
v  -0.2500   0.9239  -0.3827
v   0.2500   0.7071  -0.7071
v  -0.2500   0.7071  -0.7071
v   0.2500   0.3827  -0.9239
v  -0.2500   0.3827  -0.9239
v   0.2500   0.0000  -1.0000
v  -0.2500   0.0000  -1.0000
v   0.2500  -0.3827  -0.9239
v  -0.2500  -0.3827  -0.9239
v   0.2500  -0.7071  -0.7071
v  -0.2500  -0.7071  -0.7071
v   0.2500  -0.9239  -0.3827
v  -0.2500  -0.9239  -0.3827
v   0.2500  -1.0000  -0.0000
v  -0.2500  -1.0000  -0.0000
v   0.2500  -0.9239   0.3827
v  -0.2500  -0.9239   0.3827
v   0.2500  -0.7071   0.7071
v  -0.2500  -0.7071   0.7071
v   0.2500  -0.3827   0.9239
v  -0.2500  -0.3827   0.9239
# Normals: 18
vn   1.0000   0.0000   0.0000
vn  -0.0000   0.1951   0.9808
vn  -1.0000   0.0000   0.0000
vn  -0.0000   0.5556   0.8315
vn  -0.0000   0.8315   0.5556
vn  -0.0000   0.9808   0.1951
vn   0.0000   0.9808  -0.1951
vn   0.0000   0.8315  -0.5556
vn   0.0000   0.5556  -0.8315
vn   0.0000   0.1951  -0.9808
vn   0.0000  -0.1951  -0.9808
vn   0.0000  -0.5556  -0.8315
vn   0.0000  -0.8315  -0.5556
vn   0.0000  -0.9808  -0.1951
vn   0.0000  -0.9808   0.1951
vn   0.0000  -0.8315   0.5556
vn   0.0000  -0.5556   0.8315
vn   0.0000  -0.1951   0.9808
# Texture coordinates: 34
vt 0.5000 0.5000
vt 0.5000 0.5000
vt 1.0000 0.5000
vt 1.0000 0.5000
vt 0.9619 0.6913
vt 0.9619 0.6913
vt 0.8536 0.8536
vt 0.8536 0.8536
vt 0.6913 0.9619
vt 0.6913 0.9619
vt 0.5000 1.0000
vt 0.5000 1.0000
vt 0.3087 0.9619
vt 0.3087 0.9619
vt 0.1464 0.8536
vt 0.1464 0.8536
vt 0.0381 0.6913
vt 0.0381 0.6913
vt 0.0000 0.5000
vt 0.0000 0.5000
vt 0.0381 0.3087
vt 0.0381 0.3087
vt 0.1464 0.1464
vt 0.1464 0.1464
vt 0.3087 0.0381
vt 0.3087 0.0381
vt 0.5000 0.0000
vt 0.5000 0.0000
vt 0.6913 0.0381
vt 0.6913 0.0381
vt 0.8536 0.1464
vt 0.8536 0.1464
vt 0.9619 0.3087
vt 0.9619 0.3087
# Faces: 64
f 1/1/1 5/5/1 3/3/1
f 4/4/2 3/3/2 5/5/2
f 5/5/2 6/6/2 4/4/2
f 2/2/3 4/4/3 6/6/3
f 1/1/1 7/7/1 5/5/1
f 6/6/4 5/5/4 7/7/4
f 7/7/4 8/8/4 6/6/4
f 2/2/3 6/6/3 8/8/3
f 1/1/1 9/9/1 7/7/1
f 8/8/5 7/7/5 9/9/5
f 9/9/5 10/10/5 8/8/5
f 2/2/3 8/8/3 10/10/3
f 1/1/1 11/11/1 9/9/1
f 10/10/6 9/9/6 11/11/6
f 11/11/6 12/12/6 10/10/6
f 2/2/3 10/10/3 12/12/3
f 1/1/1 13/13/1 11/11/1
f 12/12/7 11/11/7 13/13/7
f 13/13/7 14/14/7 12/12/7
f 2/2/3 12/12/3 14/14/3
f 1/1/1 15/15/1 13/13/1
f 14/14/8 13/13/8 15/15/8
f 15/15/8 16/16/8 14/14/8
f 2/2/3 14/14/3 16/16/3
f 1/1/1 17/17/1 15/15/1
f 16/16/9 15/15/9 17/17/9
f 17/17/9 18/18/9 16/16/9
f 2/2/3 16/16/3 18/18/3
f 1/1/1 19/19/1 17/17/1
f 18/18/10 17/17/10 19/19/10
f 19/19/10 20/20/10 18/18/10
f 2/2/3 18/18/3 20/20/3
f 1/1/1 21/21/1 19/19/1
f 20/20/11 19/19/11 21/21/11
f 21/21/11 22/22/11 20/20/11
f 2/2/3 20/20/3 22/22/3
f 1/1/1 23/23/1 21/21/1
f 22/22/12 21/21/12 23/23/12
f 23/23/12 24/24/12 22/22/12
f 2/2/3 22/22/3 24/24/3
f 1/1/1 25/25/1 23/23/1
f 24/24/13 23/23/13 25/25/13
f 25/25/13 26/26/13 24/24/13
f 2/2/3 24/24/3 26/26/3
f 1/1/1 27/27/1 25/25/1
f 26/26/14 25/25/14 27/27/14
f 27/27/14 28/28/14 26/26/14
f 2/2/3 26/26/3 28/28/3
f 1/1/1 29/29/1 27/27/1
f 28/28/15 27/27/15 29/29/15
f 29/29/15 30/30/15 28/28/15
f 2/2/3 28/28/3 30/30/3
f 1/1/1 31/31/1 29/29/1
f 30/30/16 29/29/16 31/31/16
f 31/31/16 32/32/16 30/30/16
f 2/2/3 30/30/3 32/32/3
f 1/1/1 33/33/1 31/31/1
f 32/32/17 31/31/17 33/33/17
f 33/33/17 34/34/17 32/32/17
f 2/2/3 32/32/3 34/34/3
f 1/1/1 3/3/1 33/33/1
f 34/34/18 33/33/18 3/3/18
f 3/3/18 4/4/18 34/34/18
f 2/2/3 34/34/3 4/4/3
